PathFileType  4	(X/Y/Z) C:\Users\wagnerel85475\Documents\Thesis\opencap-core\Data\3375ffbc-daeb-4a43-b4f7-ac9899cd4c71\MarkerData\PreAugmentation
DataRate	CameraRate	NumFrames	NumMarkers	Units	OrigDataRate	OrigDataStartFrame	OrigNumFrames
60.0	60.0	17	20	m	60.0	161	641
Frame#	Time	Neck			RShoulder			RElbow			RWrist			LShoulder			LElbow			LWrist			midHip			RHip			RKnee			RAnkle			LHip			LKnee			LAnkle			LBigToe			LSmallToe			LHeel			RBigToe			RSmallToe			RHeel			
		X1	Y1	Z1	X2	Y2	Z2	X3	Y3	Z3	X4	Y4	Z4	X5	Y5	Z5	X6	Y6	Z6	X7	Y7	Z7	X8	Y8	Z8	X9	Y9	Z9	X10	Y10	Z10	X11	Y11	Z11	X12	Y12	Z12	X13	Y13	Z13	X14	Y14	Z14	X15	Y15	Z15	X16	Y16	Z16	X17	Y17	Z17	X18	Y18	Z18	X19	Y19	Z19	X20	Y20	Z20	

161	2.6666667	0.8049100	0.5854100	-0.0539600	0.7763300	0.5793700	0.1070500	0.9908900	0.4592100	0.1797000	1.3426500	0.5231200	0.0825700	0.8140800	0.5802200	-0.2128900	1.0884500	0.4433400	-0.2520800	1.3740500	0.5090100	-0.1135400	0.3762100	0.1677200	-0.0865200	0.3888200	0.1565000	0.0375300	0.8257000	0.2653400	0.1425500	0.5513000	-0.1856700	0.0906900	0.3803600	0.1885500	-0.1963900	0.7763700	0.2721300	-0.2883400	0.5585600	-0.1695500	-0.2535300	0.7624700	-0.2235700	-0.3301800	0.7022200	-0.2261800	-0.3653300	0.4995600	-0.2288400	-0.2360500	0.6975900	-0.2366100	0.2245100	0.6534200	-0.2365200	0.2409300	0.5052300	-0.2235800	0.0531900
162	2.6833333	0.7966600	0.5766700	-0.0572000	0.7761900	0.5757700	0.1064800	0.9759300	0.4553800	0.1675200	1.3429600	0.5236300	0.0754500	0.8055700	0.5751000	-0.2175700	1.1107700	0.4425500	-0.2611000	1.3794400	0.5083800	-0.1168800	0.3658600	0.1529600	-0.0907700	0.3785100	0.1464200	0.0307300	0.8153900	0.2602100	0.1484100	0.5514600	-0.1853600	0.0906700	0.3674200	0.1760900	-0.2017200	0.7762300	0.2719500	-0.2879900	0.5579400	-0.1700100	-0.2535500	0.7628200	-0.2236100	-0.3301300	0.7019300	-0.2262200	-0.3653800	0.4999200	-0.2289200	-0.2358100	0.6902900	-0.2394600	0.2289500	0.6530900	-0.2367800	0.2410300	0.5051300	-0.2234800	0.0532600
163	2.7000000	0.7961500	0.5765800	-0.0574900	0.7764200	0.5755400	0.1065400	0.9747300	0.4558200	0.1669400	1.3413500	0.5228200	0.0755500	0.8049600	0.5746500	-0.2171300	1.0955000	0.4376300	-0.2551700	1.3855300	0.5100100	-0.1202700	0.3761100	0.1552700	-0.0954700	0.3837000	0.1423100	0.0295800	0.8174600	0.2604800	0.1551000	0.5516500	-0.1822300	0.0900400	0.3637200	0.1707400	-0.2008800	0.7760800	0.2685100	-0.2887900	0.5586200	-0.1695900	-0.2535400	0.7624400	-0.2235800	-0.3301100	0.7021800	-0.2261600	-0.3652800	0.4995700	-0.2288200	-0.2360700	0.6975900	-0.2367400	0.2245200	0.6535600	-0.2366500	0.2409000	0.5054000	-0.2234700	0.0530700
164	2.7166667	0.7966900	0.5764300	-0.0572100	0.7770200	0.5723300	0.1062000	0.9759800	0.4522000	0.1744700	1.3428700	0.5236500	0.0755300	0.8053600	0.5748000	-0.2253400	1.0905100	0.4378400	-0.2515600	1.3856300	0.5103600	-0.1204600	0.3767000	0.1591500	-0.0959100	0.3956600	0.1499900	0.0240800	0.8167300	0.2606400	0.1559500	0.5514600	-0.1813500	0.0913200	0.3761500	0.1734700	-0.2062800	0.7764100	0.2681700	-0.2883900	0.5579900	-0.1700100	-0.2535500	0.7628500	-0.2236500	-0.3300900	0.7019600	-0.2262700	-0.3653500	0.4999600	-0.2289500	-0.2357900	0.6986100	-0.2362200	0.2242500	0.6532100	-0.2365700	0.2409600	0.5052400	-0.2190000	0.0538200
165	2.7333333	0.7958200	0.5798100	-0.0577500	0.7762800	0.5756100	0.1064600	0.9562900	0.4565800	0.1679700	1.3288000	0.5233200	0.0832000	0.8047100	0.5746000	-0.2170200	1.1090900	0.4422100	-0.2613800	1.3666300	0.5056400	-0.1162000	0.3772400	0.1591500	-0.0960400	0.3834500	0.1502500	0.0297300	0.8191800	0.2644600	0.1546900	0.5513300	-0.1784100	0.0907300	0.3637800	0.1707300	-0.2009200	0.7851700	0.2706300	-0.2927800	0.5586500	-0.1695200	-0.2535200	0.7623900	-0.2235600	-0.3301200	0.7022000	-0.2261100	-0.3652600	0.4996500	-0.2287900	-0.2360400	0.7061300	-0.2334300	0.2198100	0.6637200	-0.2329000	0.2434900	0.5051700	-0.2162500	0.0531100
166	2.7500000	0.7964100	0.5800800	-0.0574400	0.7764100	0.5828700	0.1064300	0.9734700	0.4632500	0.1743100	1.3302800	0.5271500	0.0835800	0.7872500	0.5751900	-0.2175400	1.0891300	0.4413500	-0.2580100	1.3675400	0.5070400	-0.1170700	0.3885100	0.1701000	-0.0836800	0.3971800	0.1589100	0.0326400	0.8113600	0.2631800	0.1597400	0.5518200	-0.1817900	0.0901600	0.3753900	0.1808700	-0.1977400	0.7847000	0.2736900	-0.2929500	0.5582600	-0.1657600	-0.2530200	0.7625700	-0.2273300	-0.3308000	0.7018400	-0.2264000	-0.3654000	0.5015000	-0.2217000	-0.2345700	0.7155400	-0.2296500	0.2149900	0.6638300	-0.2327500	0.2435600	0.5051400	-0.2160900	0.0533400
167	2.7666667	0.7957400	0.5843200	-0.0574300	0.7775600	0.5857200	0.1061800	0.9604600	0.4515600	0.1901600	1.3435700	0.5327100	0.0891300	0.7867100	0.5791600	-0.2170000	1.0787900	0.4419500	-0.2538600	1.3796100	0.5147400	-0.1167400	0.4087600	0.1873200	-0.0839800	0.4176000	0.1743900	0.0324100	0.8064200	0.2596400	0.1611800	0.5514100	-0.1783400	0.0907900	0.3960400	0.1982500	-0.1970900	0.7930800	0.2802500	-0.2968500	0.5588800	-0.1653400	-0.2529600	0.7622700	-0.2272700	-0.3308600	0.7022500	-0.2263600	-0.3653200	0.5102400	-0.2183800	-0.2310900	0.7147100	-0.2299800	0.2151700	0.6641400	-0.2325700	0.2434600	0.5052400	-0.2162100	0.0532300
168	2.7833333	0.7880700	0.5861500	-0.0532100	0.7771500	0.5860400	0.1062900	0.9535600	0.4608900	0.2023600	1.3450000	0.5366700	0.0895800	0.7872900	0.5872100	-0.2175400	1.0882100	0.4524600	-0.2502600	1.3803100	0.5265700	-0.1176000	0.4080800	0.1956400	-0.0829100	0.4203200	0.1849400	0.0372800	0.8054800	0.2593800	0.1620100	0.5515600	-0.1778600	0.0908300	0.3979300	0.1993900	-0.1980100	0.7930900	0.2798900	-0.2965700	0.5581800	-0.1657700	-0.2529600	0.7627000	-0.2273100	-0.3308000	0.7021200	-0.2265200	-0.3653600	0.5104500	-0.2181400	-0.2307300	0.7154800	-0.2297600	0.2149300	0.6637200	-0.2328400	0.2435200	0.5052000	-0.2160100	0.0533800
169	2.8000000	0.8047500	0.6023100	-0.0549400	0.7791600	0.6001800	0.1057700	0.9623400	0.4681200	0.2049600	1.3441100	0.5422700	0.0897200	0.7954600	0.5962100	-0.2211200	1.0940400	0.4592200	-0.2533400	1.3733500	0.5482500	-0.1129100	0.4078300	0.2035500	-0.0830600	0.4200500	0.1927400	0.0377400	0.8025800	0.2568600	0.1629500	0.5513500	-0.1782700	0.0908200	0.3938100	0.2106100	-0.1975000	0.7848700	0.2784400	-0.3006300	0.5590600	-0.1651500	-0.2530200	0.7711900	-0.2203200	-0.3338300	0.7025700	-0.2260200	-0.3654100	0.5087600	-0.2180500	-0.2322900	0.7063800	-0.2333400	0.2197900	0.6638700	-0.2327100	0.2434900	0.4959900	-0.2194900	0.0577900
170	2.8166667	0.7966500	0.6117900	-0.0584000	0.7769700	0.6119000	0.1060600	0.9198700	0.4779300	0.1965700	1.3301800	0.5646600	0.0837000	0.8037300	0.6109200	-0.2188100	1.0642500	0.4661900	-0.2452300	1.3717800	0.5487300	-0.1195000	0.3976300	0.2079500	-0.0793100	0.3986500	0.2022500	0.0386300	0.8019500	0.2569400	0.1635300	0.5514200	-0.1778800	0.0908400	0.3618100	0.2140300	-0.1938600	0.7847700	0.2810400	-0.3007100	0.5582700	-0.1656900	-0.2530500	0.7717000	-0.2203400	-0.3337300	0.7022900	-0.2261700	-0.3654200	0.5090700	-0.2181900	-0.2320200	0.7073900	-0.2328700	0.2196100	0.6636400	-0.2327800	0.2436000	0.4958300	-0.2193900	0.0578900
171	2.8333333	0.8038700	0.6324900	-0.0542900	0.7765200	0.6306000	0.1066300	0.9811300	0.5023900	0.1908300	1.3499400	0.5746900	0.0853300	0.8029900	0.6287900	-0.2175900	1.0862100	0.4787800	-0.2570900	1.3660600	0.5591600	-0.1163300	0.3883800	0.2173100	-0.0839900	0.4020500	0.2152300	0.0381900	0.8032900	0.2592000	0.1623200	0.5512700	-0.1782600	0.0907900	0.3697600	0.2274100	-0.1977600	0.7847400	0.2782400	-0.3006700	0.5584800	-0.1663900	-0.2540700	0.7628300	-0.2234900	-0.3302100	0.7107400	-0.2230800	-0.3614800	0.5087000	-0.2182300	-0.2323600	0.7147100	-0.2301600	0.2151800	0.6641900	-0.2327700	0.2434000	0.4957700	-0.2195300	0.0577700
172	2.8500000	0.7870600	0.6412000	-0.0529500	0.7762900	0.6378600	0.1065600	0.9690400	0.5093300	0.2006500	1.3449200	0.5806100	0.0890800	0.7777100	0.6405600	-0.2213500	1.0797100	0.4950700	-0.2537800	1.3667200	0.5686200	-0.1170600	0.3895900	0.2300200	-0.0759400	0.3933200	0.2257300	0.0339600	0.7934800	0.2502300	0.1601600	0.5513300	-0.1813400	0.0913600	0.3530800	0.2440200	-0.1890800	0.7852000	0.2853900	-0.2996100	0.5578400	-0.1668400	-0.2541600	0.7632000	-0.2235500	-0.3301000	0.7022000	-0.2262100	-0.3653700	0.5092400	-0.2183700	-0.2320900	0.7076100	-0.2329500	0.2195900	0.6638400	-0.2330400	0.2435600	0.4959200	-0.2224700	0.0584400
173	2.8666667	0.7951700	0.6504000	-0.0498900	0.7768700	0.6545500	0.1064100	0.9708000	0.5283600	0.1803100	1.3127400	0.6081500	0.0706400	0.7946500	0.6507800	-0.2211600	1.0701300	0.5036200	-0.2503000	1.3647200	0.5950600	-0.1227400	0.3327400	0.2372800	-0.0681700	0.3701600	0.2324100	0.0447400	0.8025500	0.2564900	0.1626700	0.5510600	-0.1818000	0.0913600	0.3503400	0.2524500	-0.1882300	0.7845700	0.2741400	-0.3011400	0.5584400	-0.1663900	-0.2540700	0.7627600	-0.2234900	-0.3302100	0.7023500	-0.2258700	-0.3653500	0.4994200	-0.2215100	-0.2360800	0.7064400	-0.2334900	0.2198600	0.6640200	-0.2331400	0.2434600	0.4956700	-0.2227700	0.0584600
174	2.8833333	0.7873100	0.6688800	-0.0543500	0.7757800	0.6704700	0.1062800	0.9597200	0.5708000	0.1559800	1.3062300	0.6203700	0.0677100	0.7933600	0.6682500	-0.2224000	1.0568900	0.5188400	-0.2637700	1.3712900	0.6024500	-0.1197000	0.3421600	0.2521900	-0.0722600	0.3625300	0.2472200	0.0456700	0.7915700	0.2512600	0.1609900	0.5511900	-0.1852900	0.0906700	0.3486000	0.2671900	-0.1898300	0.7667400	0.2691000	-0.2928000	0.5577400	-0.1669500	-0.2541600	0.7632900	-0.2234300	-0.3301100	0.7096800	-0.2200700	-0.3621300	0.4993500	-0.2251400	-0.2364500	0.7073400	-0.2332400	0.2195500	0.6537800	-0.2370700	0.2408400	0.4956100	-0.2268300	0.0578700
175	2.9000000	0.7854700	0.6924100	-0.0533300	0.7752900	0.6891500	0.1068000	0.9913000	0.5662300	0.1870000	1.3438700	0.6305600	0.0889700	0.7756700	0.6918900	-0.2210400	1.0849500	0.5417500	-0.2577700	1.3786300	0.6247200	-0.1159400	0.3339700	0.2650600	-0.0603100	0.3525900	0.2670600	0.0509100	0.7924700	0.2511300	0.1600300	0.5511000	-0.1818900	0.0913300	0.3363600	0.2804500	-0.1844700	0.7576100	0.2671200	-0.2818000	0.5584500	-0.1664800	-0.2540800	0.7795500	-0.2172800	-0.3300000	0.7098500	-0.2197900	-0.3620900	0.4989100	-0.2251000	-0.2367300	0.6980500	-0.2367500	0.2245100	0.6638900	-0.2333300	0.2435000	0.4958900	-0.2300500	0.0585000
176	2.9166667	0.7858100	0.7030100	-0.0533900	0.7746200	0.7034200	0.1067100	0.9952200	0.5895200	0.1749200	1.3437100	0.6554800	0.0815900	0.7761400	0.6997600	-0.2217000	1.0861300	0.5570700	-0.2578800	1.3763800	0.6505300	-0.1226300	0.3103400	0.2848100	-0.0591200	0.3258600	0.2791500	0.0557700	0.7997900	0.2634500	0.1558600	0.5512300	-0.1855400	0.0908000	0.3283200	0.3032000	-0.1804900	0.7572100	0.2667200	-0.2812200	0.5577200	-0.1670500	-0.2541800	0.7718600	-0.2201600	-0.3337200	0.7096500	-0.2199100	-0.3621600	0.4996600	-0.2289500	-0.2358300	0.6990300	-0.2363400	0.2243900	0.6635600	-0.2334900	0.2436800	0.4974000	-0.2356400	0.0597800
177	2.9333333	0.7676400	0.7215200	-0.0534000	0.7768100	0.7208300	0.1060000	1.0070700	0.6142200	0.1719400	1.3345400	0.6741200	0.0795500	0.7649500	0.7225900	-0.2180000	1.0532200	0.5756000	-0.2655600	1.3641000	0.6568800	-0.1223300	0.3424600	0.3080400	-0.0555600	0.3534200	0.2975100	0.0507000	0.7995800	0.2673400	0.1556900	0.5512600	-0.1859000	0.0908300	0.3480500	0.3160800	-0.1800600	0.7570000	0.2707300	-0.2811200	0.5584600	-0.1665900	-0.2540700	0.7714600	-0.2201900	-0.3338200	0.7098600	-0.2198100	-0.3621300	0.4994800	-0.2288100	-0.2360500	0.6980800	-0.2367300	0.2246400	0.6639600	-0.2334200	0.2435400	0.4966800	-0.2329700	0.0592600
